<?xml version="1.0" encoding="utf-8"?>
<!-- Generator: Adobe Illustrator 16.0.0, SVG Export Plug-In . SVG Version: 6.00 Build 0)  -->
<!DOCTYPE svg PUBLIC "-//W3C//DTD SVG 1.1//EN" "http://www.w3.org/Graphics/SVG/1.1/DTD/svg11.dtd">
<svg version="1.1" id="Layer_1" xmlns="http://www.w3.org/2000/svg" xmlns:xlink="http://www.w3.org/1999/xlink" x="0px" y="0px"
	 width="40px" height="70px" viewBox="0 0 40 70" enable-background="new 0 0 40 70" xml:space="preserve">
<rect x="3" y="21" fill="#FBFBFB" width="4" height="13"/>
<rect x="15" y="12" fill="#FBFBFB" width="4" height="7"/>
<rect x="27" y="14" fill="#FBFBFB" width="4" height="11"/>
<circle fill="#FBFBFB" cx="5" cy="34" r="2"/>
<circle fill="#FBFBFB" cx="5" cy="21" r="2"/>
<circle fill="#FBFBFB" cx="17" cy="12" r="2"/>
<circle fill="#FBFBFB" cx="17" cy="19" r="2"/>
<circle fill="#FBFBFB" cx="29" cy="14" r="2"/>
<circle fill="#FBFBFB" cx="29" cy="25" r="2"/>
<path fill="#FBFBFB" d="M37,39v17c0,0.55-0.39,1.23-0.86,1.51l-15.28,8.98c-0.47,0.279-1.25,0.279-1.72,0L3.86,57.51
	C3.39,57.23,3,56.55,3,56V41c0-1.1,0.9-2,2-2s2,0.9,2,2v7c0,0.55,0.45,1,1,1s1-0.45,1-1V35c0-1.1,0.9-2,2-2s2,0.9,2,2v14
	c0,0.55,0.45,1,1,1s1-0.45,1-1V36c0-1.1,0.9-2,2-2s2,0.9,2,2v9c0,0.55,0.45,1,1,1s1-0.45,1-1V32c0-1.1,0.9-2,2-2s2,0.9,2,2v9
	c0,0.55,0.45,1,1,1s1-0.45,1-1v-7c0-1.1,0.9-2,2-2s2,0.9,2,2v11c0,0.55,0.45,1,1,1s1-0.45,1-1v-6c0-1.1,0.9-2,2-2S37,37.9,37,39z"/>
</svg>
