<?xml version="1.0" encoding="utf-8"?>
<!-- Generator: Adobe Illustrator 16.0.0, SVG Export Plug-In . SVG Version: 6.00 Build 0)  -->
<!DOCTYPE svg PUBLIC "-//W3C//DTD SVG 1.1//EN" "http://www.w3.org/Graphics/SVG/1.1/DTD/svg11.dtd">
<svg version="1.1" id="Layer_1" xmlns="http://www.w3.org/2000/svg" xmlns:xlink="http://www.w3.org/1999/xlink" x="0px" y="0px"
	 width="401px" height="402px" viewBox="0 0 401 402" enable-background="new 0 0 401 402" xml:space="preserve">
<circle fill="#464B68" cx="200" cy="201" r="141"/>
<path fill="#C9B187" d="M310.6,145.801c0,31.892-11.299,45.878-35.875,64.855l-13.608,35.892c0,7.503-97.138,39.647-104.102,37.392
	c-6.963-2.255-48.217-29.889-48.217-37.392l-16.919-67.92c-3.74-10.319,6.098-22.138,6.098-33.612
	c0-57.183,38.39-102.756,100.38-102.756S310.6,88.618,310.6,145.801z"/>
<circle fill="#FFFFFF" cx="227.787" cy="138.049" r="33.37"/>
<circle fill="#FFFFFF" cx="138.68" cy="131.449" r="27.503"/>
<path fill="#FFFFFF" d="M221.737,203.505c-3.76-12.009-73.339,18.885-73.339,18.885l1.833,11.826l-1.833,16.776
	c0,0,48.324-2.225,55.029-8.69C210.131,235.836,225.496,215.514,221.737,203.505z"/>
<ellipse fill="#C9B187" cx="278.513" cy="185.904" rx="25.852" ry="26.952"/>
<g display="none">
	<path display="inline" d="M180.94,194.3c-3.15,2.01-7.13,3.2-11.44,3.2c-10.2,0-18.5-6.67-18.5-14.88c0-8.2,8.3-14.87,18.5-14.87
		c3.32,0,6.44,0.71,9.14,1.95c0.45-0.17,0.93-0.31,1.41-0.42c-3.04-1.6-6.66-2.53-10.55-2.53c-10.75,0-19.5,7.12-19.5,15.87
		c0,8.76,8.75,15.88,19.5,15.88c4.78,0,9.16-1.41,12.55-3.74C181.65,194.65,181.27,194.49,180.94,194.3z"/>
</g>
</svg>
