<?xml version="1.0" encoding="utf-8"?>
<!-- Generator: Adobe Illustrator 16.0.0, SVG Export Plug-In . SVG Version: 6.00 Build 0)  -->
<!DOCTYPE svg PUBLIC "-//W3C//DTD SVG 1.1//EN" "http://www.w3.org/Graphics/SVG/1.1/DTD/svg11.dtd">
<svg version="1.1" id="Layer_1" xmlns="http://www.w3.org/2000/svg" xmlns:xlink="http://www.w3.org/1999/xlink" x="0px" y="0px"
	 width="70px" height="40px" viewBox="0 0 70 40" enable-background="new 0 0 70 40" xml:space="preserve">
<rect x="13.15" y="27" fill="#FBFBFB" width="13" height="4"/>
<rect x="7.15" y="21" fill="#FBFBFB" width="10" height="4"/>
<rect x="12.15" y="9" fill="#FBFBFB" width="11" height="4"/>
<circle fill="#FBFBFB" cx="26.149" cy="29" r="2"/>
<circle fill="#FBFBFB" cx="13.149" cy="29" r="2"/>
<circle fill="#FBFBFB" cx="7.15" cy="23" r="2"/>
<circle fill="#FBFBFB" cx="17.15" cy="23.001" r="1.999"/>
<rect x="17.15" y="15" fill="#FBFBFB" width="7" height="4"/>
<circle fill="#FBFBFB" cx="17.149" cy="17" r="2"/>
<circle fill="#FBFBFB" cx="24.149" cy="17.001" r="2"/>
<circle fill="#FBFBFB" cx="12.149" cy="11.001" r="2"/>
<circle fill="#FBFBFB" cx="23.149" cy="11.001" r="2"/>
<path fill="#FBFBFB" d="M37.15,3h17c0.549,0,1.23,0.39,1.51,0.86l8.98,15.28c0.279,0.47,0.279,1.25,0,1.72l-8.98,15.28
	C55.381,36.61,54.699,37,54.15,37h-15c-1.1,0-2-0.899-2-2c0-1.1,0.9-2,2-2h7c0.55,0,1-0.449,1-1c0-0.55-0.45-1-1-1h-13
	c-1.1,0-2-0.899-2-2c0-1.1,0.9-2,2-2h14c0.55,0,1-0.45,1-1s-0.45-1-1-1h-13c-1.1,0-2-0.899-2-2c0-1.1,0.9-2,2-2h9
	c0.549,0,1-0.45,1-1s-0.451-1-1-1h-13c-1.1,0-2-0.9-2-2s0.9-2,2-2h9c0.549,0,1-0.45,1-1s-0.451-1-1-1h-7c-1.1,0-2-0.9-2-2s0.9-2,2-2
	h11c0.549,0,1-0.45,1-1s-0.451-1-1-1h-6c-1.1,0-2-0.9-2-2S36.051,3,37.15,3z"/>
</svg>
