<?xml version="1.0" encoding="utf-8"?>
<!-- Generator: Adobe Illustrator 16.0.0, SVG Export Plug-In . SVG Version: 6.00 Build 0)  -->
<!DOCTYPE svg PUBLIC "-//W3C//DTD SVG 1.1//EN" "http://www.w3.org/Graphics/SVG/1.1/DTD/svg11.dtd">
<svg version="1.1" id="Capa_1" xmlns="http://www.w3.org/2000/svg" xmlns:xlink="http://www.w3.org/1999/xlink" x="0px" y="0px"
	 width="430.117px" height="430.117px" viewBox="0 0 430.117 430.117" enable-background="new 0 0 430.117 430.117"
	 xml:space="preserve">
<g>
	<path id="LinkedIn" fill="#FAFAFA" d="M405.001,256.114V396.56h-81.422V265.521c0-32.918-11.776-55.384-41.248-55.384
		c-22.499,0-35.888,15.14-41.777,29.785c-2.147,5.236-2.7,12.523-2.7,19.853V396.56h-81.45c0,0,1.097-221.938,0-244.932h81.441
		v34.718c-0.165,0.26-0.38,0.54-0.535,0.791h0.535v-0.791c10.82-16.665,30.145-40.472,73.396-40.472
		C364.828,145.873,405.001,180.88,405.001,256.114z M71.205,33.558c-27.864,0-46.089,18.276-46.089,42.31
		c0,23.51,17.698,42.341,45.008,42.341h0.544c28.403,0,46.067-18.828,46.067-42.341C116.2,51.834,99.071,33.558,71.205,33.558z
		 M29.954,396.56h81.418V151.628H29.954V396.56z"/>
</g>
</svg>
