<?xml version="1.0" encoding="utf-8"?>
<!-- Generator: Adobe Illustrator 16.0.0, SVG Export Plug-In . SVG Version: 6.00 Build 0)  -->
<!DOCTYPE svg PUBLIC "-//W3C//DTD SVG 1.1//EN" "http://www.w3.org/Graphics/SVG/1.1/DTD/svg11.dtd">
<svg version="1.1" xmlns="http://www.w3.org/2000/svg" xmlns:xlink="http://www.w3.org/1999/xlink" x="0px" y="0px" width="400px"
	 height="400px" viewBox="0 0 400 400" enable-background="new 0 0 400 400" xml:space="preserve">
<g id="Layer_1">
	<path display="none" opacity="0.2" fill="none" stroke="#000000" stroke-width="8" stroke-miterlimit="10" d="M330,78.211
		c0-4.535-3.676-8.211-8.211-8.211H78.211C73.677,70,70,73.676,70,78.211v243.578c0,4.535,3.676,8.211,8.21,8.211h243.578
		c4.535,0,8.211-3.676,8.211-8.211V78.211z"/>
	<g opacity="0.05">
		<path fill="#010202" d="M340,88.211c0-4.535-3.676-8.211-8.211-8.211H88.211C83.677,80,80,83.676,80,88.211v243.578
			c0,4.535,3.676,8.211,8.21,8.211h243.578c4.535,0,8.211-3.676,8.211-8.211V88.211z"/>
	</g>
	<path fill="#E2C6B3" d="M330,78.211c0-4.535-3.676-8.211-8.211-8.211H78.211C73.677,70,70,73.676,70,78.211v243.578
		c0,4.535,3.676,8.211,8.21,8.211h243.578c4.535,0,8.211-3.676,8.211-8.211V78.211z"/>
	<circle fill="#473D35" cx="135" cy="235.001" r="15"/>
	<circle fill="#473D35" cx="265" cy="235" r="15"/>
	<g opacity="0.1">
		<path fill="#010202" d="M320,80v240H80V80H320 M321.789,70H78.211C73.677,70,70,73.676,70,78.211v243.578
			c0,4.535,3.676,8.211,8.21,8.211h243.578c4.535,0,8.211-3.676,8.211-8.211V78.211C330,73.676,326.324,70,321.789,70L321.789,70z"
			/>
	</g>
	<path fill="#6E5D4F" d="M225.696,205.129c6.641-1.994,79.032,12.41,79.032,12.41c-21.353-19.64-50.483-32.474-66.694-33.542
		c0.215,0.824,0.366,1.596,0.434,2.265c0.184,1.739-0.715,0.171-1.659-2.326c-1.411-0.039-2.714,0.009-3.885,0.18
		c0.863,2.362,1.803,5.284,2.015,7.281c0.288,2.748-2.1-2.739-3.169-7.087c-1.141,0.236-2.136,0.585-2.97,1.062
		C217.965,191.515,219.057,207.123,225.696,205.129z"/>
	<path fill="#6E5D4F" d="M174.304,205.129c-6.641-1.994-79.032,12.41-79.032,12.41c21.353-19.64,50.483-32.474,66.694-33.542
		c-0.215,0.824-0.366,1.596-0.434,2.265c-0.184,1.739,0.715,0.171,1.659-2.326c1.411-0.039,2.714,0.009,3.885,0.18
		c-0.863,2.362-1.803,5.284-2.015,7.281c-0.288,2.748,2.1-2.739,3.169-7.087c1.141,0.236,2.136,0.585,2.97,1.062
		C182.035,191.515,180.943,207.123,174.304,205.129z"/>
	<path fill="none" stroke="#A57C7C" stroke-width="5" stroke-linecap="round" stroke-miterlimit="10" d="M175,275
		c0,13.807,11.193,25,25,25c13.807,0,25-11.193,25-25"/>
	<g>
		<defs>
			<path id="SVGID_1_" d="M330,78.211c0-4.535-3.676-8.211-8.211-8.211H78.211C73.677,70,70,73.676,70,78.211v243.578
				c0,4.535,3.676,8.211,8.21,8.211h243.578c4.535,0,8.211-3.676,8.211-8.211V78.211z"/>
		</defs>
		<clipPath id="SVGID_2_">
			<use xlink:href="#SVGID_1_"  overflow="visible"/>
		</clipPath>
		<path display="none" clip-path="url(#SVGID_2_)" fill="#6E5D4F" d="M173,211c-6.25-3-80,0-80,0
			c24.14-16.09,54.91-24.25,71.09-22.79c-0.34,0.78-0.61,1.52-0.78,2.17c-0.45,1.69,0.68,0.28,2-2.04c1.4,0.18,2.68,0.43,3.81,0.78
			c-1.22,2.2-2.6,4.94-3.12,6.88c-0.71,2.67,2.5-2.38,4.23-6.51c1.09,0.41,2.02,0.91,2.77,1.51C182.75,198.75,179.25,214,173,211z"
			/>
		<ellipse clip-path="url(#SVGID_2_)" fill="#6E5D4F" cx="200" cy="80" rx="130" ry="80"/>
	</g>
	<g>
		<defs>
			<path id="SVGID_3_" d="M330,78.211c0-4.535-3.676-8.211-8.211-8.211H78.211C73.677,70,70,73.676,70,78.211v243.578
				c0,4.535,3.676,8.211,8.21,8.211h243.578c4.535,0,8.211-3.676,8.211-8.211V78.211z"/>
		</defs>
		<clipPath id="SVGID_4_">
			<use xlink:href="#SVGID_3_"  overflow="visible"/>
		</clipPath>
		<ellipse clip-path="url(#SVGID_4_)" fill="#6E5D4F" cx="200" cy="96.154" rx="140" ry="86.154"/>
		<g opacity="0.1" clip-path="url(#SVGID_4_)">
			<path fill="#010202" d="M200,18c35.936,0,69.604,8.54,94.803,24.047C318.79,56.809,332,76.024,332,96.154
				s-13.21,39.345-37.197,54.107c-25.199,15.507-58.867,24.047-94.803,24.047c-35.935,0-69.603-8.54-94.802-24.047
				C81.21,135.499,68,116.284,68,96.154s13.21-39.345,37.198-54.107C130.397,26.54,164.065,18,200,18 M200,10
				C122.68,10,60,48.572,60,96.154s62.68,86.154,140,86.154c77.32,0,140-38.572,140-86.154S277.32,10,200,10L200,10z"/>
		</g>
	</g>
	<path opacity="0.1" fill="#010202" d="M290,130c0,0,0,18.443-29.51,22.132C230.981,155.821,278.934,152.132,290,130z"/>
	<circle opacity="0.3" fill="#FFFFFF" cx="270.054" cy="237.205" r="3.302"/>
	<circle opacity="0.3" fill="#FFFFFF" cx="140" cy="237.205" r="3.302"/>
</g>
<g id="Layer_2">
	<g>
		<path fill="#010202" d="M200,302.5c-15.164,0-27.5-8.972-27.5-20s12.336-20,27.5-20c15.163,0,27.5,8.972,27.5,20
			S215.163,302.5,200,302.5z"/>
		<path fill="#E2C6B3" d="M200,265c13.807,0,25,7.835,25,17.5S213.807,300,200,300c-13.807,0-25-7.835-25-17.5S186.193,265,200,265
			 M200,260c-7.694,0-14.99,2.142-20.545,6.029c-6.009,4.206-9.455,10.21-9.455,16.471s3.446,12.265,9.455,16.471
			C185.01,302.858,192.306,305,200,305s14.99-2.142,20.545-6.029c6.009-4.206,9.455-10.21,9.455-16.471s-3.446-12.265-9.455-16.471
			C214.99,262.142,207.694,260,200,260L200,260z"/>
	</g>
	<g>
		<defs>
			<ellipse id="SVGID_5_" cx="200" cy="282.5" rx="25" ry="17.5"/>
		</defs>
		<clipPath id="SVGID_6_">
			<use xlink:href="#SVGID_5_"  overflow="visible"/>
		</clipPath>
		<path clip-path="url(#SVGID_6_)" fill="#A9526D" d="M213.275,293.8c0,3.979-3.96,7.2-8.85,7.2c-1.61,0-3.12-0.351-4.42-0.971
			c-1.3,0.62-2.81,0.971-4.43,0.971c-4.89,0-8.85-3.221-8.85-7.2c0-3.98,3.96-7.2,8.85-7.2c1.62,0,3.13,0.35,4.43,0.97
			c1.3-0.62,2.81-0.97,4.42-0.97C209.315,286.6,213.275,289.819,213.275,293.8z"/>
	</g>
</g>
</svg>
